<svg xmlns="http://www.w3.org/2000/svg" xmlns:xlink="http://www.w3.org/1999/xlink" contentStyleType="text/css" data-diagram-type="ACTIVITY" height="349px" preserveAspectRatio="none" style="width:385px;height:349px;background:#282A36;" version="1.1" viewBox="0 0 385 349" width="385px" zoomAndPan="magnify"><defs/><g><rect fill="#282A36" height="349" style="stroke:none;stroke-width:1;" width="385" x="0" y="0"/><ellipse cx="217.6623" cy="20" fill="#222222" rx="10" ry="10" style="stroke:#222222;stroke-width:1;"/><rect fill="#44475A" height="34.4001" rx="12.5" ry="12.5" style="stroke:#6272A4;stroke-width:0.5;" width="135.4768" x="149.9239" y="50"/><text fill="#F8F8F2" font-family="'DejaVu Sans'" font-size="12" lengthAdjust="spacing" textLength="0" x="159.9239" y="72.0001">&#128270;</text><text fill="#F8F8F2" font-family="'DejaVu Sans'" font-size="12" font-weight="bold" lengthAdjust="spacing" textLength="112.4768" x="162.9239" y="72.0001">Check environment</text><rect fill="#44475A" height="34.4001" rx="12.5" ry="12.5" style="stroke:#6272A4;stroke-width:0.5;" width="300.598" x="67.3633" y="104.4001"/><text fill="#F8F8F2" font-family="'DejaVu Sans'" font-size="12" lengthAdjust="spacing" textLength="0" x="77.3633" y="126.4002">&#128179;</text><text fill="#F8F8F2" font-family="'DejaVu Sans'" font-size="12" font-weight="bold" lengthAdjust="spacing" textLength="277.598" x="80.3633" y="126.4002">Check account balance (Bitcoin Cash on Copay)</text><polygon fill="#44475A" points="168.7016,158.8002,266.6229,158.8002,278.6229,170.8002,266.6229,182.8002,168.7016,182.8002,156.7016,170.8002,168.7016,158.8002" style="stroke:#6272A4;stroke-width:0.5;"/><text fill="#F8F8F2" font-family="'DejaVu Sans'" font-size="11" lengthAdjust="spacing" textLength="97.9213" x="168.7016" y="175.2002">"Balance sufficient?"</text><text fill="#F8F8F2" font-family="sans-serif" font-size="11" lengthAdjust="spacing" textLength="16.5439" x="140.1578" y="168.6002">yes</text><text fill="#F8F8F2" font-family="sans-serif" font-size="11" lengthAdjust="spacing" textLength="11.7809" x="278.6229" y="168.6002">no</text><rect fill="#44475A" height="34.4001" rx="12.5" ry="12.5" style="stroke:#6272A4;stroke-width:0.5;" width="221.5655" x="11" y="192.8002"/><text fill="#F8F8F2" font-family="'DejaVu Sans'" font-size="12" lengthAdjust="spacing" textLength="0" x="21" y="214.8003">&#128274;</text><text fill="#F8F8F2" font-family="'DejaVu Sans'" font-size="12" font-weight="bold" lengthAdjust="spacing" textLength="198.5655" x="24" y="214.8003">Collect account data / private keys</text><rect fill="#44475A" height="48.8002" rx="12.5" ry="12.5" style="stroke:#6272A4;stroke-width:0.5;" width="139.1969" x="52.1843" y="247.2003"/><text fill="#F8F8F2" font-family="'DejaVu Sans'" font-size="12" lengthAdjust="spacing" textLength="0" x="62.1843" y="269.2004">&#128227;</text><text fill="#F8F8F2" font-family="'DejaVu Sans'" font-size="12" font-weight="bold" lengthAdjust="spacing" textLength="116.1968" x="65.1843" y="269.2004">Notify security team</text><text fill="#F8F8F2" font-family="'DejaVu Sans'" font-size="12" lengthAdjust="spacing" textLength="97.4287" x="73.0684" y="283.6005">(and stakeholders)</text><ellipse cx="121.7827" cy="327.0005" fill="none" rx="11" ry="11" style="stroke:#222222;stroke-width:1;"/><ellipse cx="121.7827" cy="327.0005" fill="#222222" rx="6" ry="6" style="stroke:#222222;stroke-width:1;"/><rect fill="#44475A" height="34.4001" rx="12.5" ry="12.5" style="stroke:#6272A4;stroke-width:0.5;" width="121.9527" x="252.5655" y="192.8002"/><text fill="#F8F8F2" font-family="'DejaVu Sans'" font-size="12" font-weight="bold" lengthAdjust="spacing" textLength="101.9527" x="262.5655" y="214.8003">No action needed</text><ellipse cx="313.5418" cy="258.2003" fill="none" rx="11" ry="11" style="stroke:#222222;stroke-width:1;"/><ellipse cx="313.5418" cy="258.2003" fill="#222222" rx="6" ry="6" style="stroke:#222222;stroke-width:1;"/><line style="stroke:#FF79C6;stroke-width:3;" x1="217.6623" x2="217.6623" y1="30" y2="50"/><polygon fill="#FF79C6" points="213.6623,40,217.6623,50,221.6623,40,217.6623,44" style="stroke:#FF79C6;stroke-width:1;"/><line style="stroke:#FF79C6;stroke-width:3;" x1="217.6623" x2="217.6623" y1="84.4001" y2="104.4001"/><polygon fill="#FF79C6" points="213.6623,94.4001,217.6623,104.4001,221.6623,94.4001,217.6623,98.4001" style="stroke:#FF79C6;stroke-width:1;"/><line style="stroke:#FF79C6;stroke-width:3;" x1="121.7827" x2="121.7827" y1="227.2003" y2="247.2003"/><polygon fill="#FF79C6" points="117.7827,237.2003,121.7827,247.2003,125.7827,237.2003,121.7827,241.2003" style="stroke:#FF79C6;stroke-width:1;"/><line style="stroke:#FF79C6;stroke-width:3;" x1="121.7827" x2="121.7827" y1="296.0005" y2="316.0005"/><polygon fill="#FF79C6" points="117.7827,306.0005,121.7827,316.0005,125.7827,306.0005,121.7827,310.0005" style="stroke:#FF79C6;stroke-width:1;"/><line style="stroke:#FF79C6;stroke-width:3;" x1="313.5418" x2="313.5418" y1="227.2003" y2="247.2003"/><polygon fill="#FF79C6" points="309.5418,237.2003,313.5418,247.2003,317.5418,237.2003,313.5418,241.2003" style="stroke:#FF79C6;stroke-width:1;"/><line style="stroke:#FF79C6;stroke-width:3;" x1="156.7016" x2="121.7827" y1="170.8002" y2="170.8002"/><line style="stroke:#FF79C6;stroke-width:3;" x1="121.7827" x2="121.7827" y1="170.8002" y2="192.8002"/><polygon fill="#FF79C6" points="117.7827,182.8002,121.7827,192.8002,125.7827,182.8002,121.7827,186.8002" style="stroke:#FF79C6;stroke-width:1;"/><line style="stroke:#FF79C6;stroke-width:3;" x1="278.6229" x2="313.5418" y1="170.8002" y2="170.8002"/><line style="stroke:#FF79C6;stroke-width:3;" x1="313.5418" x2="313.5418" y1="170.8002" y2="192.8002"/><polygon fill="#FF79C6" points="309.5418,182.8002,313.5418,192.8002,317.5418,182.8002,313.5418,186.8002" style="stroke:#FF79C6;stroke-width:1;"/><line style="stroke:#FF79C6;stroke-width:3;" x1="217.6623" x2="217.6623" y1="138.8002" y2="158.8002"/><polygon fill="#FF79C6" points="213.6623,148.8002,217.6623,158.8002,221.6623,148.8002,217.6623,152.8002" style="stroke:#FF79C6;stroke-width:1;"/><!--SRC=[bPAzRjim4CTtFSN17I9F0Ip77ssGmX_ew2L1foudycYneac1F3aLYhn2XxHxXpv2NgoFK4fM4iVDq880Xxl_tU_uvvt1sgEe3KA5XfWf2QMs5NhSGOwYt7fNMxbondbuCvgDC9iSAIGfh0tVq1TU6BsrEx8C8bxaZrIXGEbkjTs2GXCeISvWuoH1uCR4w95o8LZlDJVmDG5OdkB7u_7q0jkCyv9y7vsCfYCSn-W7PxcFgLayepwsmHt1O4sVyMCDrsZ38BaxOgv9wA2TVPtvrFq5CvVpJCrVCdjp_ecvyDxTFiwgfdCnEKtU55gKbaA0x3JrzpkV1Hl7zFf3iZnJ5xF_CE-k_QThHiz9wEwtlt_- -0QN-TMg8542sRtshlloo_FywbsRltzupgCG4SznYmnQGP0kDGkdBQmm513zNhaAc-6XLYj81yjU6MgbjD2nyVl14BWW2sb3OHZ7R6UuxnZE61ByH9782ETGURt7Q459JJXqxcg-_sfheZbQDH18rBvTCYRSjQ9FDaKhupfYIOKpqPqmR0i3kogXkB6GMjVHkoQHoUs-M299yf5o45kfrHy0]--></g></svg>