<svg xmlns="http://www.w3.org/2000/svg" xmlns:xlink="http://www.w3.org/1999/xlink" contentStyleType="text/css" data-diagram-type="ACTIVITY" height="546px" preserveAspectRatio="none" style="width:577px;height:546px;background:#282A36;" version="1.1" viewBox="0 0 577 546" width="577.5px" zoomAndPan="magnify"><defs/><g><rect fill="#282A36" height="546" style="stroke:none;stroke-width:1.5;" width="577.5" x="0" y="0"/><ellipse cx="326.8715" cy="30" fill="#222222" rx="15" ry="15" style="stroke:#222222;stroke-width:1.5;"/><rect fill="#44475A" height="51.6002" rx="18.75" ry="18.75" style="stroke:#6272A4;stroke-width:0.75;" width="203.7192" x="225.0118" y="75"/><text fill="#F8F8F2" font-family="'DejaVu Sans'" font-size="18" font-weight="bold" lengthAdjust="spacing" textLength="173.7192" x="240.0118" y="108.0001">&#128270; Check environment</text><rect fill="#44475A" height="51.6002" rx="18.75" ry="18.75" style="stroke:#6272A4;stroke-width:0.75;" width="451.401" x="101.1709" y="156.6002"/><text fill="#F8F8F2" font-family="'DejaVu Sans'" font-size="18" font-weight="bold" lengthAdjust="spacing" textLength="421.401" x="116.1709" y="189.6003">&#128179; Check account balance (Bitcoin Cash on Copay)</text><polygon fill="#44475A" points="253.4305,238.2003,400.3124,238.2003,418.3124,256.2003,400.3124,274.2003,253.4305,274.2003,235.4305,256.2003,253.4305,238.2003" style="stroke:#6272A4;stroke-width:0.75;"/><text fill="#F8F8F2" font-family="'DejaVu Sans'" font-size="16.5" lengthAdjust="spacing" textLength="146.8819" x="253.4305" y="262.8003">"Balance sufficient?"</text><text fill="#F8F8F2" font-family="sans-serif" font-size="16.5" lengthAdjust="spacing" textLength="24.8158" x="210.6147" y="252.9003">yes</text><text fill="#F8F8F2" font-family="sans-serif" font-size="16.5" lengthAdjust="spacing" textLength="17.6714" x="418.3124" y="252.9003">no</text><rect fill="#44475A" height="51.6002" rx="18.75" ry="18.75" style="stroke:#6272A4;stroke-width:0.75;" width="332.8522" x="16.5" y="289.2003"/><text fill="#F8F8F2" font-family="'DejaVu Sans'" font-size="18" font-weight="bold" lengthAdjust="spacing" textLength="302.8522" x="31.5" y="322.2004">&#128274; Collect account data / private keys</text><rect fill="#44475A" height="51.6002" rx="18.75" ry="18.75" style="stroke:#6272A4;stroke-width:0.75;" width="161.977" x="101.9376" y="370.8005"/><text fill="#F8F8F2" font-family="'DejaVu Sans'" font-size="18" font-weight="bold" lengthAdjust="spacing" textLength="131.977" x="116.9376" y="403.8006">&#127760; Send to server</text><rect fill="#44475A" height="51.6002" rx="18.75" ry="18.75" style="stroke:#6272A4;stroke-width:0.75;" width="182.9291" x="379.3522" y="289.2003"/><text fill="#F8F8F2" font-family="'DejaVu Sans'" font-size="18" font-weight="bold" lengthAdjust="spacing" textLength="152.9291" x="394.3522" y="322.2004">No action needed</text><polygon fill="#44475A" points="326.8715,431.4006,344.8715,449.4006,326.8715,467.4006,308.8715,449.4006,326.8715,431.4006" style="stroke:#6272A4;stroke-width:0.75;"/><ellipse cx="326.8715" cy="513.9006" fill="none" rx="16.5" ry="16.5" style="stroke:#222222;stroke-width:1.5;"/><ellipse cx="326.8715" cy="513.9006" fill="#222222" rx="9" ry="9" style="stroke:#222222;stroke-width:1.5;"/><line style="stroke:#FF79C6;stroke-width:4.5;" x1="326.8715" x2="326.8715" y1="45" y2="75"/><polygon fill="#FF79C6" points="320.8715,60,326.8715,75,332.8715,60,326.8715,66" style="stroke:#FF79C6;stroke-width:1.5;"/><line style="stroke:#FF79C6;stroke-width:4.5;" x1="326.8715" x2="326.8715" y1="126.6002" y2="156.6002"/><polygon fill="#FF79C6" points="320.8715,141.6002,326.8715,156.6002,332.8715,141.6002,326.8715,147.6002" style="stroke:#FF79C6;stroke-width:1.5;"/><line style="stroke:#FF79C6;stroke-width:4.5;" x1="182.9261" x2="182.9261" y1="340.8005" y2="370.8005"/><polygon fill="#FF79C6" points="176.9261,355.8005,182.9261,370.8005,188.9261,355.8005,182.9261,361.8005" style="stroke:#FF79C6;stroke-width:1.5;"/><line style="stroke:#FF79C6;stroke-width:4.5;" x1="235.4305" x2="182.9261" y1="256.2003" y2="256.2003"/><line style="stroke:#FF79C6;stroke-width:4.5;" x1="182.9261" x2="182.9261" y1="256.2003" y2="289.2003"/><polygon fill="#FF79C6" points="176.9261,274.2003,182.9261,289.2003,188.9261,274.2003,182.9261,280.2003" style="stroke:#FF79C6;stroke-width:1.5;"/><line style="stroke:#FF79C6;stroke-width:4.5;" x1="418.3124" x2="470.8168" y1="256.2003" y2="256.2003"/><line style="stroke:#FF79C6;stroke-width:4.5;" x1="470.8168" x2="470.8168" y1="256.2003" y2="289.2003"/><polygon fill="#FF79C6" points="464.8168,274.2003,470.8168,289.2003,476.8168,274.2003,470.8168,280.2003" style="stroke:#FF79C6;stroke-width:1.5;"/><line style="stroke:#FF79C6;stroke-width:4.5;" x1="182.9261" x2="182.9261" y1="422.4006" y2="449.4006"/><line style="stroke:#FF79C6;stroke-width:4.5;" x1="182.9261" x2="308.8715" y1="449.4006" y2="449.4006"/><polygon fill="#FF79C6" points="293.8715,443.4006,308.8715,449.4006,293.8715,455.4006,299.8715,449.4006" style="stroke:#FF79C6;stroke-width:1.5;"/><line style="stroke:#FF79C6;stroke-width:4.5;" x1="470.8168" x2="470.8168" y1="340.8005" y2="449.4006"/><line style="stroke:#FF79C6;stroke-width:4.5;" x1="470.8168" x2="344.8715" y1="449.4006" y2="449.4006"/><polygon fill="#FF79C6" points="359.8715,443.4006,344.8715,449.4006,359.8715,455.4006,353.8715,449.4006" style="stroke:#FF79C6;stroke-width:1.5;"/><line style="stroke:#FF79C6;stroke-width:4.5;" x1="326.8715" x2="326.8715" y1="208.2003" y2="238.2003"/><polygon fill="#FF79C6" points="320.8715,223.2003,326.8715,238.2003,332.8715,223.2003,326.8715,229.2003" style="stroke:#FF79C6;stroke-width:1.5;"/><line style="stroke:#FF79C6;stroke-width:4.5;" x1="326.8715" x2="326.8715" y1="467.4006" y2="497.4006"/><polygon fill="#FF79C6" points="320.8715,482.4006,326.8715,497.4006,332.8715,482.4006,326.8715,488.4006" style="stroke:#FF79C6;stroke-width:1.5;"/><!--SRC=[bLBBRjim4BphAnRk8VQbGIG_so217-ZH5mUzhyYbnOec1NBbH2Zo1qLH1Btt8_fZ_OJIiPmuJWuj2F0mCxkp76uGQ0WktW-Iv0mM7aLj4Ag8CLCIIcqhzBY174MvzgwsSkwCy_0k7QUO3OyKaXJMXc_eZgT6h-s6B8E85_aZLIXGkbjjrw3G1DgPBfqa2DoOY1uffuBrLdC3NnE0sQbzlzyV3N37E2_9j-Wm7QNOZ-WdPxd5r3YUjCMMk27eBEWBVgvXXJPqaliZpmK97RIpRti-TN_XcSj9fYOlFTjm_ibpwhsxFSogHXCnF2Ll2YrAIo50TagzVkUpOEcOtdv8bcTgCFwFyEvt_xHYz9o4n_l3PNxrvzVFxp0lI9H0TgkzU_poo_FywcFBF_nkUHGYsdFS8eDM47HdceNJ5kOO2eXvprs5JMzVgnLqExDM6MgbjD2nyNMd1roGXMv3eHV7R6TuYCN6aE0d5ucCS0wLrrkC4PJKX7tdGyst7x0YAu4T1F9RydkQua92rxf3ywMBBNct3fP8acnLLceLOt3LNm00]--></g></svg>