<svg xmlns="http://www.w3.org/2000/svg" xmlns:xlink="http://www.w3.org/1999/xlink" contentStyleType="text/css" data-diagram-type="ACTIVITY" height="598px" preserveAspectRatio="none" style="width:390px;height:598px;background:#282A36;" version="1.1" viewBox="0 0 390 598" width="390px" zoomAndPan="magnify"><defs/><g><rect fill="#282A36" height="598" style="stroke:none;stroke-width:1;" width="390" x="0" y="0"/><ellipse cx="214.9923" cy="20" fill="#222222" rx="10" ry="10" style="stroke:#222222;stroke-width:1;"/><rect fill="#44475A" height="48.8002" rx="12.5" ry="12.5" style="stroke:#6272A4;stroke-width:0.5;" width="217.8214" x="106.0816" y="50"/><text fill="#F8F8F2" font-family="'DejaVu Sans'" font-size="12" lengthAdjust="spacing" textLength="0" x="157.2539" y="72.0001">&#128270;</text><text fill="#F8F8F2" font-family="'DejaVu Sans'" font-size="12" font-weight="bold" lengthAdjust="spacing" textLength="112.4768" x="160.2539" y="72.0001">Check environment</text><text fill="#F8F8F2" font-family="'DejaVu Sans'" font-size="12" lengthAdjust="spacing" textLength="197.8214" x="116.0816" y="86.4002">(system posture, processes, env vars)</text><rect fill="#44475A" height="48.8002" rx="12.5" ry="12.5" style="stroke:#6272A4;stroke-width:0.5;" width="169.6171" x="130.1837" y="118.8002"/><text fill="#F8F8F2" font-family="'DejaVu Sans'" font-size="12" lengthAdjust="spacing" textLength="0" x="146.1538" y="140.8003">&#128179;</text><text fill="#F8F8F2" font-family="'DejaVu Sans'" font-size="12" font-weight="bold" lengthAdjust="spacing" textLength="134.677" x="149.1538" y="140.8003">Check account balance</text><text fill="#F8F8F2" font-family="'DejaVu Sans'" font-size="12" lengthAdjust="spacing" textLength="149.6171" x="140.1837" y="155.2004">(look for large/abnormal ops)</text><polygon fill="#44475A" points="166.0316,187.6004,263.9529,187.6004,275.9529,199.6004,263.9529,211.6004,166.0316,211.6004,154.0316,199.6004,166.0316,187.6004" style="stroke:#6272A4;stroke-width:0.5;"/><text fill="#F8F8F2" font-family="'DejaVu Sans'" font-size="11" lengthAdjust="spacing" textLength="97.9213" x="166.0316" y="204.0004">"Balance sufficient?"</text><text fill="#F8F8F2" font-family="sans-serif" font-size="11" lengthAdjust="spacing" textLength="16.5439" x="137.4877" y="197.4004">yes</text><text fill="#F8F8F2" font-family="sans-serif" font-size="11" lengthAdjust="spacing" textLength="11.7809" x="275.9529" y="197.4004">no</text><rect fill="#44475A" height="48.8002" rx="12.5" ry="12.5" style="stroke:#6272A4;stroke-width:0.5;" width="171.0091" x="32.3062" y="221.6004"/><text fill="#F8F8F2" font-family="'DejaVu Sans'" font-size="12" lengthAdjust="spacing" textLength="12.0001" x="42.3062" y="243.6005">&#9888;&#65039;</text><text fill="#F8F8F2" font-family="'DejaVu Sans'" font-size="12" font-weight="bold" lengthAdjust="spacing" textLength="136.009" x="57.3063" y="243.6005">Flag suspicious activity</text><text fill="#F8F8F2" font-family="'DejaVu Sans'" font-size="12" lengthAdjust="spacing" textLength="115.4888" x="60.0663" y="258.0006">(create incident ticket)</text><rect fill="#44475A" height="48.8002" rx="12.5" ry="12.5" style="stroke:#6272A4;stroke-width:0.5;" width="146.8529" x="44.3842" y="304.8007"/><text fill="#F8F8F2" font-family="'DejaVu Sans'" font-size="12" lengthAdjust="spacing" textLength="0" x="54.3842" y="326.8008">&#128274;</text><text fill="#F8F8F2" font-family="'DejaVu Sans'" font-size="12" font-weight="bold" lengthAdjust="spacing" textLength="123.8529" x="57.3843" y="326.8008">Isolate account / host</text><text fill="#F8F8F2" font-family="'DejaVu Sans'" font-size="12" lengthAdjust="spacing" textLength="126.3609" x="54.6303" y="341.2009">(restrict network egress)</text><rect fill="#44475A" height="34.4001" rx="12.5" ry="12.5" style="stroke:#6272A4;stroke-width:0.5;" width="213.6214" x="11" y="373.6009"/><text fill="#F8F8F2" font-family="'DejaVu Sans'" font-size="12" lengthAdjust="spacing" textLength="0" x="21" y="395.601">&#128273;</text><text fill="#F8F8F2" font-family="'DejaVu Sans'" font-size="12" font-weight="bold" lengthAdjust="spacing" textLength="190.6214" x="24" y="395.601">Rotate credentials &amp; revoke keys</text><rect fill="#44475A" height="48.8002" rx="12.5" ry="12.5" style="stroke:#6272A4;stroke-width:0.5;" width="193.9893" x="20.8161" y="428.001"/><text fill="#F8F8F2" font-family="'DejaVu Sans'" font-size="12" lengthAdjust="spacing" textLength="0" x="43.0382" y="450.0011">&#128228;</text><text fill="#F8F8F2" font-family="'DejaVu Sans'" font-size="12" font-weight="bold" lengthAdjust="spacing" textLength="146.545" x="46.0382" y="450.0011">Collect forensic evidence</text><text fill="#F8F8F2" font-family="'DejaVu Sans'" font-size="12" lengthAdjust="spacing" textLength="173.9893" x="30.8161" y="464.4012">(logs, memory, network captures)</text><rect fill="#44475A" height="48.8002" rx="12.5" ry="12.5" style="stroke:#6272A4;stroke-width:0.5;" width="139.1969" x="48.2123" y="496.8012"/><text fill="#F8F8F2" font-family="'DejaVu Sans'" font-size="12" lengthAdjust="spacing" textLength="0" x="58.2123" y="518.8013">&#128227;</text><text fill="#F8F8F2" font-family="'DejaVu Sans'" font-size="12" font-weight="bold" lengthAdjust="spacing" textLength="116.1968" x="61.2123" y="518.8013">Notify security team</text><text fill="#F8F8F2" font-family="'DejaVu Sans'" font-size="12" lengthAdjust="spacing" textLength="97.4287" x="69.0963" y="533.2014">(and stakeholders)</text><ellipse cx="117.8107" cy="576.6014" fill="none" rx="11" ry="11" style="stroke:#222222;stroke-width:1;"/><ellipse cx="117.8107" cy="576.6014" fill="#222222" rx="6" ry="6" style="stroke:#222222;stroke-width:1;"/><rect fill="#44475A" height="34.4001" rx="12.5" ry="12.5" style="stroke:#6272A4;stroke-width:0.5;" width="135.1048" x="244.6214" y="221.6004"/><text fill="#F8F8F2" font-family="'DejaVu Sans'" font-size="12" lengthAdjust="spacing" textLength="10.1521" x="254.6214" y="243.6005">&#9989;</text><text fill="#F8F8F2" font-family="'DejaVu Sans'" font-size="12" font-weight="bold" lengthAdjust="spacing" textLength="101.9527" x="267.7735" y="243.6005">No action needed</text><ellipse cx="312.1738" cy="301.4006" fill="none" rx="11" ry="11" style="stroke:#222222;stroke-width:1;"/><ellipse cx="312.1738" cy="301.4006" fill="#222222" rx="6" ry="6" style="stroke:#222222;stroke-width:1;"/><line style="stroke:#FF79C6;stroke-width:3;" x1="214.9923" x2="214.9923" y1="30" y2="50"/><polygon fill="#FF79C6" points="210.9923,40,214.9923,50,218.9923,40,214.9923,44" style="stroke:#FF79C6;stroke-width:1;"/><line style="stroke:#FF79C6;stroke-width:3;" x1="214.9923" x2="214.9923" y1="98.8002" y2="118.8002"/><polygon fill="#FF79C6" points="210.9923,108.8002,214.9923,118.8002,218.9923,108.8002,214.9923,112.8002" style="stroke:#FF79C6;stroke-width:1;"/><line style="stroke:#FF79C6;stroke-width:3;" x1="117.8107" x2="117.8107" y1="270.4006" y2="304.8007"/><polygon fill="#FF79C6" points="113.8107,294.8007,117.8107,304.8007,121.8107,294.8007,117.8107,298.8007" style="stroke:#FF79C6;stroke-width:1;"/><line style="stroke:#FF79C6;stroke-width:3;" x1="117.8107" x2="117.8107" y1="353.6009" y2="373.6009"/><polygon fill="#FF79C6" points="113.8107,363.6009,117.8107,373.6009,121.8107,363.6009,117.8107,367.6009" style="stroke:#FF79C6;stroke-width:1;"/><line style="stroke:#FF79C6;stroke-width:3;" x1="117.8107" x2="117.8107" y1="408.001" y2="428.001"/><polygon fill="#FF79C6" points="113.8107,418.001,117.8107,428.001,121.8107,418.001,117.8107,422.001" style="stroke:#FF79C6;stroke-width:1;"/><line style="stroke:#FF79C6;stroke-width:3;" x1="117.8107" x2="117.8107" y1="476.8012" y2="496.8012"/><polygon fill="#FF79C6" points="113.8107,486.8012,117.8107,496.8012,121.8107,486.8012,117.8107,490.8012" style="stroke:#FF79C6;stroke-width:1;"/><line style="stroke:#FF79C6;stroke-width:3;" x1="117.8107" x2="117.8107" y1="545.6014" y2="565.6014"/><polygon fill="#FF79C6" points="113.8107,555.6014,117.8107,565.6014,121.8107,555.6014,117.8107,559.6014" style="stroke:#FF79C6;stroke-width:1;"/><line style="stroke:#FF79C6;stroke-width:3;" x1="312.1738" x2="312.1738" y1="256.0005" y2="290.4006"/><polygon fill="#FF79C6" points="308.1738,280.4006,312.1738,290.4006,316.1738,280.4006,312.1738,284.4006" style="stroke:#FF79C6;stroke-width:1;"/><line style="stroke:#FF79C6;stroke-width:3;" x1="154.0316" x2="117.8107" y1="199.6004" y2="199.6004"/><line style="stroke:#FF79C6;stroke-width:3;" x1="117.8107" x2="117.8107" y1="199.6004" y2="221.6004"/><polygon fill="#FF79C6" points="113.8107,211.6004,117.8107,221.6004,121.8107,211.6004,117.8107,215.6004" style="stroke:#FF79C6;stroke-width:1;"/><line style="stroke:#FF79C6;stroke-width:3;" x1="275.9529" x2="312.1738" y1="199.6004" y2="199.6004"/><line style="stroke:#FF79C6;stroke-width:3;" x1="312.1738" x2="312.1738" y1="199.6004" y2="221.6004"/><polygon fill="#FF79C6" points="308.1738,211.6004,312.1738,221.6004,316.1738,211.6004,312.1738,215.6004" style="stroke:#FF79C6;stroke-width:1;"/><line style="stroke:#FF79C6;stroke-width:3;" x1="214.9923" x2="214.9923" y1="167.6004" y2="187.6004"/><polygon fill="#FF79C6" points="210.9923,177.6004,214.9923,187.6004,218.9923,177.6004,214.9923,181.6004" style="stroke:#FF79C6;stroke-width:1;"/><!--SRC=[bPFFRjD04CRlVefHa6WgHOgKf4rRggB-KIKkFT2A4vV9UkmiNkzOk-iK2_N8bOgM4q822Tw02y_32y0ZC9kuQLfw05doONRszyryExC6HmvLRH0gD1G29RxGjaA79KnG5RdZsgQ7RDZ1ey7M08URAnafPLYRS4QlmxxHkIt91b3o8xUIvQUOyhcsEMHeF2N96fnmIk13OoIwahclWfxfqC2R1E3WllneD1flO3nXbv9hevk3yG174Zrc6zfOjYNVe8sTO4dGEQ9N-AA6KxI-aroiQ1wHqbwpVLXpIR-ZEKctXzdsNStMd7_It7UEpszgpSRRQlF-uTbKgyAIzp2yV_HtdxS99npeuKQ6as6siVKVvbt4TpeDw4BYv_-Ttvy_l8FToTxXb5G1P6VQyVp9T_kJlPUswniVg8IAVQWTzQ1ohAG3yhsO33DqVlr9n5nzlyMWKb9ba64pQ1MrACDSG2RL67GvzN5YsPLeWAk8I7G6tSx1uWRuEikqqbB7qyuwX2bPw3RarwMhdPyVl_pwSHdLZWtcakehIUNQY-vYr5f1vGZ5EcsLJkCG1x6VWcW9HFg-YeXddarCkYcv3rDfjGKuyi5f5S1IE6Sd_kGIyal2-qXupY42H2oAQDa6U0oEPbmG5DJuo6elN7-RUyJ6a4352h9UAw1Ph6_5frpSBQbar_IMqWgh-09ByUklaIMpeRC6FAdQnHqBX6MBGPlADc91KpOo78kBFd2La2miT2qltFpqTW6QkoShOqaQIM-gNbomgSx-0000]--></g></svg>